<svg data-v-423bf9ae="" xmlns="http://www.w3.org/2000/svg" viewBox="0 0 156.59959425180546 60" class="font"><!----><!----><defs data-v-423bf9ae=""><linearGradient data-v-423bf9ae="" gradientTransform="rotate(25)" id="f56d6b02-c859-4e09-b830-9a9817c06cbf" x1="0%" y1="0%" x2="100%" y2="0%"><stop data-v-423bf9ae="" offset="0%" style="stop-color: rgb(0, 21, 214); stop-opacity: 1;"></stop><stop data-v-423bf9ae="" offset="100%" style="stop-color: rgb(9, 137, 251); stop-opacity: 1;"></stop></linearGradient></defs><g data-v-423bf9ae="" id="58036229-7f08-4788-b6de-85652331e176" fill="url(#f56d6b02-c859-4e09-b830-9a9817c06cbf)" transform="matrix(5.983935567262797,0,0,5.983935567262797,-1.25662426371143,-23.775096988004847)"><path d="M4.87 4.76C4.87 5.07 4.62 5.32 4.31 5.32L3.14 5.32L3.14 6.65C2.98 6.51 2.79 6.43 2.58 6.43C2.35 6.43 2.16 6.51 2.02 6.65L2.02 5.32L0.77 5.32C0.46 5.32 0.21 5.07 0.21 4.76C0.21 4.45 0.46 4.20 0.77 4.20L4.31 4.20C4.62 4.20 4.87 4.45 4.87 4.76ZM3.14 7.22L3.14 13.44C3.14 13.75 2.88 14 2.58 14C2.27 14 2.02 13.75 2.02 13.44L2.02 7.22L2.02 7.17C2.04 6.89 2.28 6.66 2.58 6.66C2.87 6.66 3.11 6.87 3.14 7.17ZM8.65 8.96C8.65 9.03 8.64 9.09 8.62 9.14C8.55 9.37 8.33 9.52 8.09 9.52C7.78 9.52 7.53 9.27 7.53 8.96C7.53 8.93 7.53 8.90 7.52 8.88C7.50 8.58 7.39 8.32 7.20 8.11C6.99 7.90 6.72 7.77 6.44 7.77C6.16 7.77 5.89 7.90 5.70 8.11C5.50 8.32 5.39 8.58 5.36 8.88L5.36 8.96C5.36 9.27 5.11 9.52 4.80 9.52C4.55 9.52 4.34 9.37 4.27 9.14C4.26 9.09 4.24 9.03 4.24 8.96L4.24 8.88C4.24 8.78 4.26 8.69 4.27 8.60C4.44 7.50 5.35 6.65 6.44 6.65C7.55 6.65 8.46 7.50 8.62 8.60C8.64 8.69 8.64 8.78 8.65 8.88ZM8.65 11.91C8.65 12.53 8.41 13.08 7.98 13.45C7.57 13.80 7.03 14 6.44 14C5.24 14 4.24 12.96 4.24 11.69L4.24 9.53C4.30 9.58 4.35 9.63 4.41 9.66C4.52 9.73 4.66 9.76 4.80 9.76C5.03 9.76 5.22 9.67 5.36 9.53C5.42 9.48 5.46 9.42 5.50 9.35C5.54 9.45 5.61 9.55 5.70 9.63C5.89 9.84 6.16 9.97 6.44 9.97C6.72 9.97 6.99 9.84 7.20 9.63C7.28 9.55 7.34 9.45 7.39 9.35C7.53 9.60 7.78 9.76 8.09 9.76C8.23 9.76 8.36 9.73 8.48 9.66C8.15 10.50 7.36 11.09 6.44 11.09C6.05 11.09 5.68 10.98 5.36 10.79L5.36 11.69C5.36 12.01 5.47 12.32 5.70 12.54C5.89 12.75 6.16 12.88 6.44 12.88C6.76 12.88 7.04 12.78 7.24 12.61C7.43 12.45 7.53 12.21 7.53 11.91C7.53 11.61 7.78 11.35 8.09 11.35C8.40 11.35 8.65 11.61 8.65 11.91ZM13.90 9.02C13.90 9.32 13.65 9.58 13.34 9.58C13.03 9.58 12.78 9.32 12.78 9.02C12.78 8.69 12.66 8.39 12.45 8.16C12.25 7.94 11.98 7.83 11.70 7.83C11.42 7.83 11.14 7.94 10.95 8.16C10.74 8.39 10.61 8.69 10.61 9.02L10.61 11.16C10.47 11.00 10.28 10.92 10.05 10.92C9.84 10.92 9.65 11.00 9.49 11.16L9.49 9.02C9.49 7.74 10.49 6.71 11.70 6.71C12.91 6.71 13.90 7.74 13.90 9.02ZM11.69 14C10.49 14 9.49 12.96 9.49 11.69C9.49 11.38 9.74 11.13 10.05 11.13C10.36 11.13 10.61 11.38 10.61 11.69C10.61 12.01 10.72 12.32 10.95 12.54C11.14 12.77 11.41 12.88 11.69 12.88C11.97 12.88 12.24 12.77 12.45 12.54C12.66 12.32 12.78 12.01 12.78 11.69C12.78 11.38 13.03 11.13 13.34 11.13C13.65 11.13 13.90 11.38 13.90 11.69C13.90 12.96 12.91 14 11.69 14ZM15.86 6.69C15.37 6.94 14.98 7.36 14.74 7.88L14.74 4.79C14.74 4.48 14.99 4.23 15.30 4.23C15.61 4.23 15.86 4.48 15.86 4.79ZM19.15 9.02C19.12 9.31 18.89 9.53 18.59 9.53C18.28 9.53 18.05 9.31 18.03 9.02L18.03 8.97C18.03 8.65 17.91 8.34 17.70 8.12C17.49 7.91 17.22 7.78 16.94 7.78C16.66 7.78 16.39 7.91 16.20 8.12C15.97 8.34 15.86 8.65 15.86 8.97C15.86 9.28 15.61 9.53 15.30 9.53C14.99 9.53 14.74 9.28 14.74 8.97C14.74 8.12 15.19 7.36 15.86 6.96C16.18 6.78 16.55 6.66 16.94 6.66C18.16 6.66 19.15 7.70 19.15 8.97ZM15.30 9.77C15.53 9.77 15.72 9.69 15.86 9.55L15.86 13.44C15.86 13.75 15.61 14 15.30 14C14.99 14 14.74 13.75 14.74 13.44L14.74 9.55C14.88 9.69 15.08 9.77 15.30 9.77ZM19.15 13.44C19.15 13.75 18.90 14 18.59 14C18.28 14 18.03 13.75 18.03 13.44L18.03 9.55C18.17 9.69 18.37 9.77 18.59 9.77C18.80 9.77 19.00 9.69 19.15 9.55ZM21.13 4.61L20.94 5.95C20.92 6.16 20.72 6.31 20.51 6.29C20.33 6.26 20.20 6.12 20.17 5.95L20.01 4.61C19.96 4.30 20.17 4.02 20.48 3.98C20.79 3.93 21.08 4.16 21.13 4.47ZM21.97 6.52C21.97 6.27 22.01 6.05 22.06 5.82C22.34 4.89 23.18 4.21 24.15 4.20L24.16 4.20C25.38 4.20 26.38 5.25 26.38 6.52C26.38 6.61 26.35 6.69 26.32 6.76C26.22 6.96 26.03 7.08 25.82 7.08C25.59 7.08 25.40 6.96 25.31 6.76C25.27 6.69 25.26 6.61 25.26 6.52C25.26 6.20 25.13 5.89 24.92 5.67C24.71 5.45 24.44 5.32 24.16 5.32C23.88 5.32 23.62 5.45 23.42 5.67C23.20 5.89 23.09 6.20 23.09 6.52C23.09 6.61 23.07 6.69 23.03 6.76C22.93 6.96 22.75 7.08 22.53 7.08C22.30 7.08 22.12 6.96 22.02 6.76C21.99 6.69 21.97 6.61 21.97 6.52ZM25.82 10.89C25.45 10.89 25.14 11.13 25.05 11.45L22.32 7.31C22.39 7.34 22.46 7.34 22.53 7.34C22.89 7.34 23.20 7.10 23.30 6.76L26.03 10.92C25.96 10.89 25.89 10.89 25.82 10.89ZM26.38 11.69C26.38 11.93 26.33 12.17 26.26 12.38C25.98 13.31 25.16 14 24.18 14L24.16 14C22.96 14 21.97 12.96 21.97 11.69C21.97 11.59 21.99 11.51 22.02 11.44C22.12 11.26 22.30 11.13 22.53 11.13C22.75 11.13 22.93 11.26 23.03 11.44C23.07 11.51 23.09 11.59 23.09 11.69C23.09 12.01 23.20 12.32 23.42 12.54C23.62 12.75 23.88 12.88 24.16 12.88C24.44 12.88 24.71 12.75 24.92 12.54C25.13 12.32 25.26 12.01 25.26 11.69C25.26 11.59 25.27 11.51 25.31 11.44C25.40 11.26 25.59 11.13 25.82 11.13C26.03 11.13 26.22 11.26 26.32 11.44C26.35 11.51 26.38 11.59 26.38 11.69Z"></path></g><!----><!----></svg>